<svg width="37" height="31" viewBox="0 0 37 31" fill="none" xmlns="http://www.w3.org/2000/svg">
<path d="M25.3313 31H11.6687C11.2158 31 10.7814 30.8186 10.4611 30.4956C10.1408 30.1726 9.96088 29.7345 9.96088 29.2778V15.6206L7.74071 17.3428C7.07466 18.0144 5.99873 18.0144 5.33268 17.3428L0.499538 12.555C-0.166513 11.8833 -0.166513 10.7983 0.499538 10.1267L10.5415 0H13.3765C13.3765 1.89444 15.665 3.44444 18.5 3.44444C21.335 3.44444 23.6235 1.89444 23.6235 0H26.4585L36.5005 10.1267C37.1665 10.7983 37.1665 11.8833 36.5005 12.555L31.6673 17.4289C31.0013 18.0833 29.9253 18.0833 29.2593 17.4289L27.0391 15.7067V29.2778C27.0391 29.7345 26.8592 30.1726 26.5389 30.4956C26.2186 30.8186 25.7842 31 25.3313 31Z" fill="inherit"/>
</svg>
