<svg width="247" height="40" fill="none" version="1.1" viewBox="0 0 247 40" >
 <rect width="247" height="40" rx="4" fill="#1877F2"/>
 <path d="m63.524 24.225h5.8096v1.7754h-8.0332v-12.797h2.2236v11.022zm6.9082-3.0674c0-0.9316 0.1846-1.7695 0.5537-2.5136 0.3692-0.75 0.8877-1.3243 1.5557-1.7227 0.668-0.4043 1.4355-0.6064 2.3027-0.6064 1.2832 0 2.3233 0.413 3.1201 1.2392 0.8028 0.8262 1.2364 1.9219 1.3008 3.2871l0.0088 0.501c0 0.9375-0.1816 1.7754-0.5449 2.5137-0.3574 0.7383-0.8731 1.3095-1.5469 1.7138-0.668 0.4043-1.4414 0.6065-2.3203 0.6065-1.3418 0-2.417-0.4453-3.2256-1.336-0.8027-0.8964-1.2041-2.0888-1.2041-3.5771v-0.1055zm2.1358 0.1846c0 0.9785 0.2021 1.7461 0.6064 2.3027 0.4043 0.5508 0.9668 0.8262 1.6875 0.8262s1.2803-0.2812 1.6787-0.8437c0.4043-0.5625 0.6065-1.3858 0.6065-2.4698 0-0.9609-0.208-1.7226-0.6241-2.2851-0.4101-0.5625-0.9697-0.8438-1.6787-0.8438-0.6972 0-1.2509 0.2783-1.6611 0.835-0.4102 0.5508-0.6152 1.3769-0.6152 2.4785zm8.1386-0.167c0-1.4766 0.3457-2.6543 1.0371-3.5332 0.6973-0.8848 1.6202-1.3271 2.7686-1.3271 1.084 0 1.9365 0.3779 2.5576 1.1337l0.0967-0.958h1.9248v9.2198c0 1.248-0.3897 2.2324-1.1689 2.9531-0.7735 0.7207-1.8194 1.081-3.1377 1.081-0.6973 0-1.3799-0.1464-2.0479-0.4394-0.6621-0.2871-1.166-0.6651-1.5117-1.1338l1.0107-1.2832c0.6563 0.7793 1.4649 1.1689 2.4258 1.1689 0.709 0 1.2686-0.1933 1.6787-0.58 0.4102-0.3809 0.6153-0.9434 0.6153-1.6875v-0.6416c-0.6153 0.6855-1.4356 1.0283-2.461 1.0283-1.1133 0-2.0244-0.4424-2.7334-1.3272-0.7031-0.8847-1.0547-2.1093-1.0547-3.6738zm2.127 0.1846c0 0.9551 0.1933 1.708 0.5801 2.2588 0.3925 0.5449 0.9345 0.8173 1.6259 0.8173 0.8614 0 1.5-0.3691 1.9161-1.1074v-4.1836c-0.4043-0.7207-1.0372-1.081-1.8985-1.081-0.7031 0-1.251 0.2783-1.6435 0.8349-0.3868 0.5567-0.5801 1.377-0.5801 2.461zm10.731 4.6406h-2.1357v-9.5098h2.1357v9.5098zm-2.2675-11.98c0-0.3281 0.1025-0.6006 0.3076-0.8174 0.2109-0.2168 0.5097-0.3252 0.8965-0.3252 0.3867 0 0.6855 0.1084 0.8964 0.3252 0.211 0.2168 0.3164 0.4893 0.3164 0.8174 0 0.3223-0.1054 0.5918-0.3164 0.8086-0.2109 0.2109-0.5097 0.3164-0.8964 0.3164-0.3868 0-0.6856-0.1055-0.8965-0.3164-0.2051-0.2168-0.3076-0.4863-0.3076-0.8086zm6.583 2.4697 0.0615 1.0987c0.7031-0.8496 1.626-1.2744 2.7686-1.2744 1.98 0 2.988 1.1337 3.023 3.4013v6.2842h-2.135v-6.1611c0-0.6035-0.132-1.0489-0.396-1.336-0.258-0.2929-0.682-0.4394-1.2743-0.4394-0.8613 0-1.5029 0.3896-1.9248 1.1689v6.7676h-2.1357v-9.5098h2.0127zm22.764 6.3457 1.968-9.6328h2.206l-2.953 12.797h-2.127l-2.434-9.3428-2.488 9.3428h-2.135l-2.953-12.797h2.206l1.986 9.6153 2.443-9.6153h1.864l2.417 9.6328zm7.866 3.1641h-2.136v-9.5098h2.136v9.5098zm-2.268-11.98c0-0.3281 0.103-0.6006 0.308-0.8174 0.211-0.2168 0.51-0.3252 0.896-0.3252 0.387 0 0.686 0.1084 0.897 0.3252s0.316 0.4893 0.316 0.8174c0 0.3223-0.105 0.5918-0.316 0.8086-0.211 0.2109-0.51 0.3164-0.897 0.3164-0.386 0-0.685-0.1055-0.896-0.3164-0.205-0.2168-0.308-0.4863-0.308-0.8086zm7.278 0.1582v2.3115h1.678v1.5821h-1.678v5.3086c0 0.3632 0.07 0.6269 0.21 0.791 0.147 0.1582 0.405 0.2373 0.774 0.2373 0.246 0 0.495-0.0293 0.747-0.0879v1.6523c-0.486 0.1348-0.955 0.2022-1.406 0.2022-1.641 0-2.461-0.9053-2.461-2.7158v-5.3877h-1.565v-1.5821h1.565v-2.3115h2.136zm5.422 3.3486c0.698-0.8085 1.579-1.2128 2.646-1.2128 2.027 0 3.056 1.1572 3.085 3.4716v6.2139h-2.136v-6.1348c0-0.6562-0.143-1.1191-0.431-1.3886-0.281-0.2754-0.697-0.4131-1.248-0.4131-0.855 0-1.494 0.3808-1.916 1.1426v6.7939h-2.135v-13.5h2.135v5.0273zm19.96 3.0498h-5.15v5.4229h-2.224v-12.797h8.13v1.793h-5.906v3.8057h5.15v1.7753zm7.7 5.4229c-0.094-0.1816-0.176-0.4775-0.247-0.8877-0.679 0.709-1.511 1.0635-2.496 1.0635-0.955 0-1.734-0.2725-2.338-0.8174-0.603-0.5449-0.905-1.2188-0.905-2.0215 0-1.0137 0.375-1.79 1.125-2.3291 0.756-0.5449 1.834-0.8174 3.235-0.8174h1.309v-0.624c0-0.4922-0.138-0.8848-0.413-1.1777-0.275-0.2989-0.694-0.4483-1.257-0.4483-0.486 0-0.885 0.1231-1.195 0.3692-0.311 0.2402-0.466 0.5478-0.466 0.9228h-2.136c0-0.5215 0.173-1.0078 0.519-1.459 0.346-0.457 0.814-0.8144 1.406-1.0722 0.598-0.2578 1.263-0.3867 1.995-0.3867 1.114 0 2.001 0.2812 2.663 0.8437 0.662 0.5566 1.002 1.3418 1.02 2.3555v4.289c0 0.8555 0.12 1.5381 0.36 2.0479v0.1494h-2.179zm-2.347-1.5381c0.422 0 0.817-0.1025 1.186-0.3076 0.375-0.2051 0.657-0.4805 0.844-0.8262v-1.7929h-1.151c-0.791 0-1.386 0.1377-1.784 0.413-0.399 0.2754-0.598 0.6651-0.598 1.169 0 0.4101 0.135 0.7383 0.404 0.9844 0.276 0.2402 0.642 0.3603 1.099 0.3603zm10.309 0.0088c0.534 0 0.976-0.1553 1.328-0.4658 0.351-0.3106 0.539-0.6944 0.562-1.1514h2.013c-0.024 0.5918-0.208 1.1455-0.554 1.6611-0.346 0.5098-0.814 0.9141-1.406 1.2129-0.592 0.2989-1.231 0.4483-1.916 0.4483-1.33 0-2.385-0.4307-3.164-1.292-0.78-0.8613-1.169-2.0508-1.169-3.5684v-0.2197c0-1.4473 0.387-2.6045 1.16-3.4717 0.773-0.873 1.828-1.3095 3.164-1.3095 1.131 0 2.051 0.331 2.76 0.9931 0.715 0.6563 1.09 1.5205 1.125 2.5928h-2.013c-0.023-0.5449-0.211-0.9932-0.562-1.3447-0.346-0.3516-0.789-0.5274-1.328-0.5274-0.691 0-1.224 0.252-1.599 0.7559-0.375 0.498-0.566 1.2568-0.571 2.2763v0.3428c0 1.0313 0.184 1.8018 0.553 2.3115 0.375 0.504 0.914 0.7559 1.617 0.7559zm9.704 1.7051c-1.354 0-2.453-0.4248-3.296-1.2744-0.838-0.8555-1.257-1.9922-1.257-3.4102v-0.2637c0-0.9492 0.181-1.7959 0.545-2.54 0.369-0.75 0.885-1.333 1.547-1.749s1.4-0.624 2.214-0.624c1.295 0 2.294 0.413 2.998 1.2392 0.709 0.8262 1.063 1.9951 1.063 3.5068v0.8614h-6.214c0.065 0.7851 0.325 1.4062 0.782 1.8633 0.463 0.457 1.043 0.6855 1.741 0.6855 0.978 0 1.775-0.3955 2.39-1.1865l1.152 1.0986c-0.381 0.5684-0.891 1.0108-1.53 1.3272-0.633 0.3105-1.344 0.4658-2.135 0.4658zm-0.255-8.1475c-0.586 0-1.061 0.2051-1.424 0.6153-0.358 0.4101-0.586 0.9814-0.686 1.7138h4.07v-0.1582c-0.047-0.7148-0.238-1.2539-0.572-1.6172-0.334-0.3691-0.797-0.5537-1.388-0.5537zm14.08 3.3135c0 1.4766-0.331 2.6514-0.993 3.5244-0.657 0.8731-1.562 1.3096-2.716 1.3096-1.114 0-1.981-0.4014-2.602-1.2041l-0.105 1.0283h-1.934v-13.5h2.136v4.9043c0.615-0.7266 1.444-1.0898 2.487-1.0898 1.16 0 2.071 0.4306 2.734 1.2919 0.662 0.8614 0.993 2.0655 0.993 3.6124v0.123zm-2.136-0.1846c0-1.0312-0.182-1.8047-0.545-2.3203s-0.891-0.7734-1.582-0.7734c-0.926 0-1.576 0.4043-1.951 1.2129v3.9199c0.381 0.8262 1.037 1.2392 1.969 1.2392 0.668 0 1.183-0.249 1.547-0.747 0.363-0.4981 0.55-1.251 0.562-2.2588v-0.2725zm3.533 0c0-0.9316 0.185-1.7695 0.554-2.5136 0.369-0.75 0.888-1.3243 1.556-1.7227 0.668-0.4043 1.435-0.6064 2.302-0.6064 1.284 0 2.324 0.413 3.12 1.2392 0.803 0.8262 1.237 1.9219 1.301 3.2871l9e-3 0.501c0 0.9375-0.182 1.7754-0.545 2.5137-0.357 0.7383-0.873 1.3095-1.547 1.7138-0.668 0.4043-1.441 0.6065-2.32 0.6065-1.342 0-2.417-0.4453-3.226-1.336-0.802-0.8964-1.204-2.0888-1.204-3.5771v-0.1055zm2.136 0.1846c0 0.9785 0.202 1.7461 0.606 2.3027 0.405 0.5508 0.967 0.8262 1.688 0.8262s1.28-0.2812 1.679-0.8437c0.404-0.5625 0.606-1.3858 0.606-2.4698 0-0.9609-0.208-1.7226-0.624-2.2851-0.41-0.5625-0.97-0.8438-1.679-0.8438-0.697 0-1.251 0.2783-1.661 0.835-0.41 0.5508-0.615 1.3769-0.615 2.4785zm8.112-0.1846c0-0.9316 0.185-1.7695 0.554-2.5136 0.369-0.75 0.888-1.3243 1.556-1.7227 0.668-0.4043 1.435-0.6064 2.302-0.6064 1.284 0 2.324 0.413 3.12 1.2392 0.803 0.8262 1.237 1.9219 1.301 3.2871l9e-3 0.501c0 0.9375-0.182 1.7754-0.545 2.5137-0.357 0.7383-0.873 1.3095-1.547 1.7138-0.668 0.4043-1.441 0.6065-2.32 0.6065-1.342 0-2.417-0.4453-3.226-1.336-0.802-0.8964-1.204-2.0888-1.204-3.5771v-0.1055zm2.136 0.1846c0 0.9785 0.202 1.7461 0.606 2.3027 0.405 0.5508 0.967 0.8262 1.688 0.8262s1.28-0.2812 1.679-0.8437c0.404-0.5625 0.606-1.3858 0.606-2.4698 0-0.9609-0.208-1.7226-0.624-2.2851-0.41-0.5625-0.97-0.8438-1.679-0.8438-0.697 0-1.251 0.2783-1.661 0.835-0.41 0.5508-0.615 1.3769-0.615 2.4785zm11.602 0.5801-0.95 0.9756v3.1025h-2.135v-13.5h2.135v7.7871l0.668-0.835 2.628-2.9619h2.567l-3.534 3.9639 3.912 5.5459h-2.47l-2.821-4.0781z" fill="#fff"/>
 <path d="m31.037 5.0009c-2.4507 0.02291-4.8232 0.51806-7.0202 1.6183-8.0819 4.0476-10.444 14.364-5.2859 21.497 1.1028 1.5253 2.5037 2.8112 4.1305 3.8017 1.7302 1.0536 3.6173 1.7619 5.6333 2.0822v-10.227l-2.4554-0.0021-1.4493-0.0316 0.0056-1.5076-9e-4 -2.6618h3.8999c0-2.9881-0.2637-6.5376 2.8892-8.2026 0.5418-0.2861 1.1282-0.4663 1.7333-0.5742 1.505-0.2683 2.9689 0.0485 4.4779 0.0907v3.7828c-0.9154 0-2.0237-0.1543-2.8856 0.1984-1.775 0.7263-1.3035 3.2089-1.3035 4.7047h4.1892l-0.9578 3.9994-3.2312 0.2039v10.227c2.0086-0.293 3.9134-0.9784 5.6337-2.0266 7.8134-4.7601 9.3745-15.8 3.0161-22.35-1.4611-1.5051-3.221-2.7011-5.1832-3.5106-1.6764-0.69152-3.5223-1.0811-5.3446-1.1104-0.1641-0.00263-0.3277-0.00309-0.4911-0.00156z" fill="#fff"/>
</svg>
