<svg width="98" height="34" viewBox="0 0 98 34" fill="none" xmlns="http://www.w3.org/2000/svg">
<path d="M6.568 23.12C5.976 23.12 5.552 22.992 5.296 22.736C5.04 22.464 4.912 21.96 4.912 21.224C4.912 20.728 4.96 20.096 5.056 19.328C5.168 18.544 5.344 17.472 5.584 16.112C6 13.6 6.328 11.424 6.568 9.584C6.712 8.432 6.784 7.472 6.784 6.704C6.784 5.984 6.52 5.624 5.992 5.624C5.576 5.624 5.072 5.84 4.48 6.272C3.904 6.688 3.264 7.36 2.56 8.288C2.336 8.592 2.088 8.744 1.816 8.744C1.592 8.744 1.392 8.64 1.216 8.432C1.056 8.208 0.976 7.96 0.976 7.688C0.976 7.432 1.024 7.176 1.12 6.92C1.232 6.648 1.408 6.344 1.648 6.008C2.416 4.936 3.272 4.112 4.216 3.536C5.16 2.944 6.104 2.648 7.048 2.648C7.928 2.648 8.6 2.928 9.064 3.488C9.544 4.048 9.784 4.864 9.784 5.936C9.784 6.368 9.744 6.88 9.664 7.472C9.584 8.048 9.512 8.52 9.448 8.888C9.384 9.256 9.336 9.512 9.304 9.656C10.216 7.048 11.24 5.232 12.376 4.208C13.512 3.168 14.76 2.648 16.12 2.648C17.16 2.648 17.976 3.016 18.568 3.752C19.176 4.488 19.48 5.528 19.48 6.872C19.48 7.4 19.408 8.056 19.264 8.84C20.064 6.632 21 5.048 22.072 4.088C23.144 3.128 24.376 2.648 25.768 2.648C26.888 2.648 27.744 3.008 28.336 3.728C28.944 4.448 29.248 5.456 29.248 6.752C29.248 7.456 29.144 8.312 28.936 9.32L27.472 16.184C27.312 16.984 27.232 17.672 27.232 18.248C27.232 18.92 27.384 19.424 27.688 19.76C28.008 20.096 28.448 20.264 29.008 20.264C29.536 20.264 30.048 20.088 30.544 19.736C31.056 19.384 31.656 18.8 32.344 17.984C32.536 17.76 32.752 17.648 32.992 17.648C33.2 17.648 33.36 17.744 33.472 17.936C33.6 18.128 33.664 18.392 33.664 18.728C33.664 19.352 33.512 19.848 33.208 20.216C32.376 21.224 31.552 21.96 30.736 22.424C29.92 22.888 29.064 23.12 28.168 23.12C26.808 23.12 25.744 22.72 24.976 21.92C24.208 21.104 23.824 20.016 23.824 18.656C23.824 17.712 24.016 16.344 24.4 14.552L25.36 10.16C25.392 10.016 25.448 9.76 25.528 9.392C25.608 9.024 25.672 8.68 25.72 8.36C25.768 8.024 25.792 7.696 25.792 7.376C25.792 6.816 25.68 6.4 25.456 6.128C25.248 5.84 24.944 5.696 24.544 5.696C23.792 5.696 23 6.184 22.168 7.16C21.352 8.12 20.568 9.72 19.816 11.96C19.08 14.2 18.48 17.112 18.016 20.696C17.904 21.656 17.704 22.304 17.416 22.64C17.144 22.96 16.696 23.12 16.072 23.12C15.528 23.12 15.128 22.992 14.872 22.736C14.632 22.48 14.512 22 14.512 21.296C14.512 20.64 14.6 19.784 14.776 18.728C14.952 17.656 15.176 16.4 15.448 14.96C16.184 11.088 16.552 8.592 16.552 7.472C16.552 6.864 16.432 6.416 16.192 6.128C15.968 5.84 15.624 5.696 15.16 5.696C14.376 5.696 13.568 6.144 12.736 7.04C11.904 7.92 11.088 9.496 10.288 11.768C9.504 14.024 8.848 17.08 8.32 20.936C8.208 21.752 8.04 22.32 7.816 22.64C7.608 22.96 7.192 23.12 6.568 23.12ZM40.1301 11.816C40.4981 11.816 40.7541 11.864 40.8981 11.96C41.0421 12.056 41.1141 12.216 41.1141 12.44C41.1141 12.824 40.9061 14.192 40.4901 16.544C40.1221 18.8 39.9061 20.136 39.8421 20.552C39.2501 24.664 38.4341 27.92 37.3941 30.32C36.3541 32.72 34.9701 33.92 33.2421 33.92C32.4261 33.92 31.7621 33.664 31.2501 33.152C30.7381 32.656 30.4821 32 30.4821 31.184C30.4821 30.432 30.6501 29.664 30.9861 28.88C31.3381 28.096 31.9781 27.192 32.9061 26.168C33.8501 25.16 35.1781 24 36.8901 22.688L36.9621 22.136C37.0741 21.544 37.2021 20.696 37.3461 19.592C37.0261 20.744 36.5781 21.624 36.0021 22.232C35.4261 22.824 34.8181 23.12 34.1781 23.12C33.4581 23.12 32.8661 22.792 32.4021 22.136C31.9541 21.464 31.7301 20.632 31.7301 19.64C31.7301 18.44 31.8101 17.344 31.9701 16.352C32.1301 15.344 32.3941 14.28 32.7621 13.16C32.9221 12.68 33.1461 12.336 33.4341 12.128C33.7221 11.92 34.1781 11.816 34.8021 11.816C35.1541 11.816 35.3941 11.872 35.5221 11.984C35.6661 12.096 35.7381 12.264 35.7381 12.488C35.7381 12.616 35.6501 13.048 35.4741 13.784C35.3141 14.376 35.1861 14.912 35.0901 15.392C34.9621 16.048 34.8501 16.68 34.7541 17.288C34.6581 17.88 34.6101 18.368 34.6101 18.752C34.6101 19.36 34.7781 19.664 35.1141 19.664C35.3541 19.664 35.6501 19.424 36.0021 18.944C36.3701 18.464 36.7541 17.736 37.1541 16.76C37.5701 15.784 37.9701 14.584 38.3541 13.16C38.4821 12.68 38.6741 12.336 38.9301 12.128C39.2021 11.92 39.6021 11.816 40.1301 11.816ZM33.5061 31.592C33.9061 31.592 34.3541 31.128 34.8501 30.2C35.3461 29.272 35.8421 27.728 36.3381 25.568C35.1061 26.608 34.2101 27.552 33.6501 28.4C33.1061 29.264 32.8341 30.016 32.8341 30.656C32.8341 30.928 32.8821 31.152 32.9781 31.328C33.0901 31.504 33.2661 31.592 33.5061 31.592ZM55.5589 23.192C53.4309 23.192 51.7269 22.792 50.4469 21.992C49.1669 21.176 48.5269 19.936 48.5269 18.272C48.5269 17.392 48.6789 16.72 48.9829 16.256C49.2869 15.792 49.7349 15.56 50.3269 15.56C50.7589 15.56 51.1109 15.672 51.3829 15.896C51.6549 16.12 51.7909 16.408 51.7909 16.76C51.7909 17.08 51.7669 17.36 51.7189 17.6C51.7189 17.664 51.7029 17.776 51.6709 17.936C51.6549 18.096 51.6469 18.264 51.6469 18.44C51.6469 19.16 52.0069 19.696 52.7269 20.048C53.4629 20.4 54.4869 20.576 55.7989 20.576C57.1589 20.576 58.2229 20.336 58.9909 19.856C59.7589 19.36 60.1429 18.672 60.1429 17.792C60.1429 17.248 59.9669 16.784 59.6149 16.4C59.2629 16 58.8229 15.672 58.2949 15.416C57.7669 15.144 57.0229 14.816 56.0629 14.432C54.8309 13.952 53.8229 13.496 53.0389 13.064C52.2709 12.632 51.6069 12.048 51.0469 11.312C50.5029 10.56 50.2309 9.632 50.2309 8.528C50.2309 7.376 50.5349 6.352 51.1429 5.456C51.7669 4.56 52.6549 3.864 53.8069 3.368C54.9749 2.872 56.3429 2.624 57.9109 2.624C59.0789 2.624 60.1509 2.8 61.1269 3.152C62.1029 3.488 62.8789 4.008 63.4549 4.712C64.0469 5.416 64.3429 6.28 64.3429 7.304C64.3429 8.312 64.1909 9.072 63.8869 9.584C63.5829 10.096 63.1349 10.352 62.5429 10.352C62.1269 10.352 61.7749 10.224 61.4869 9.968C61.2149 9.712 61.0789 9.408 61.0789 9.056C61.0789 8.752 61.1029 8.472 61.1509 8.216C61.1989 7.736 61.2229 7.432 61.2229 7.304C61.2229 6.632 60.8949 6.12 60.2389 5.768C59.5829 5.416 58.7669 5.24 57.7909 5.24C56.4149 5.24 55.3589 5.496 54.6229 6.008C53.9029 6.504 53.5429 7.208 53.5429 8.12C53.5429 8.728 53.7269 9.248 54.0949 9.68C54.4789 10.112 54.9509 10.472 55.5109 10.76C56.0709 11.048 56.8549 11.392 57.8629 11.792C59.0789 12.288 60.0549 12.736 60.7909 13.136C61.5269 13.536 62.1509 14.08 62.6629 14.768C63.1909 15.456 63.4549 16.304 63.4549 17.312C63.4549 19.2 62.7349 20.656 61.2949 21.68C59.8709 22.688 57.9589 23.192 55.5589 23.192ZM78.5892 17.648C78.7972 17.648 78.9572 17.744 79.0692 17.936C79.1972 18.128 79.2612 18.392 79.2612 18.728C79.2612 19.368 79.1092 19.864 78.8052 20.216C78.0692 21.064 77.3092 21.76 76.5252 22.304C75.7572 22.848 74.8772 23.12 73.8852 23.12C73.0692 23.12 72.4532 22.888 72.0372 22.424C71.6212 21.944 71.4132 21.256 71.4132 20.36C71.4132 19.912 71.5252 19.112 71.7492 17.96C71.9572 16.952 72.0612 16.256 72.0612 15.872C72.0612 15.616 71.9732 15.488 71.7972 15.488C71.5892 15.488 71.2932 15.76 70.9092 16.304C70.5252 16.832 70.1412 17.536 69.7572 18.416C69.3732 19.296 69.0612 20.224 68.8212 21.2C68.5172 22.48 67.7652 23.12 66.5652 23.12C66.0852 23.12 65.7652 22.952 65.6052 22.616C65.4612 22.264 65.3892 21.64 65.3892 20.744C65.3892 20.232 65.3972 19.824 65.4132 19.52L65.4372 17.6C65.4372 15.136 65.6852 12.568 66.1812 9.896C66.6932 7.224 67.4372 4.984 68.4132 3.176C69.4052 1.352 70.5892 0.439999 71.9652 0.439999C72.7012 0.439999 73.2932 0.759999 73.7412 1.4C74.2052 2.024 74.4372 2.84 74.4372 3.848C74.4372 5.464 73.9652 7.144 73.0212 8.888C72.0772 10.616 70.5412 12.64 68.4132 14.96C68.3652 15.792 68.3412 16.648 68.3412 17.528C68.8692 16.168 69.4532 15.064 70.0932 14.216C70.7492 13.352 71.3892 12.736 72.0132 12.368C72.6532 12 73.2372 11.816 73.7652 11.816C74.8052 11.816 75.3252 12.336 75.3252 13.376C75.3252 14 75.1492 15.128 74.7972 16.76C74.4932 18.152 74.3412 19.072 74.3412 19.52C74.3412 20.16 74.5732 20.48 75.0372 20.48C75.3572 20.48 75.7332 20.288 76.1652 19.904C76.6132 19.504 77.2052 18.864 77.9412 17.984C78.1332 17.76 78.3492 17.648 78.5892 17.648ZM71.4612 2.816C71.1732 2.816 70.8532 3.232 70.5012 4.064C70.1492 4.88 69.8052 5.992 69.4692 7.4C69.1492 8.792 68.8852 10.312 68.6772 11.96C69.6692 10.792 70.4852 9.52 71.1252 8.144C71.7812 6.768 72.1092 5.52 72.1092 4.4C72.1092 3.888 72.0532 3.496 71.9412 3.224C71.8292 2.952 71.6692 2.816 71.4612 2.816ZM89.5561 15.632C89.7641 15.632 89.9241 15.736 90.0361 15.944C90.1481 16.152 90.2041 16.416 90.2041 16.736C90.2041 17.504 89.9721 17.96 89.5081 18.104C88.5481 18.44 87.4921 18.632 86.3401 18.68C86.0361 20.024 85.4361 21.104 84.5401 21.92C83.6441 22.72 82.6281 23.12 81.4921 23.12C80.5321 23.12 79.7081 22.888 79.0201 22.424C78.3481 21.96 77.8361 21.344 77.4841 20.576C77.1321 19.808 76.9561 18.976 76.9561 18.08C76.9561 16.864 77.1881 15.784 77.6521 14.84C78.1161 13.88 78.7561 13.136 79.5721 12.608C80.3881 12.064 81.2921 11.792 82.2841 11.792C83.5001 11.792 84.4761 12.216 85.2121 13.064C85.9641 13.896 86.4041 14.928 86.5321 16.16C87.2841 16.112 88.1801 15.952 89.2201 15.68C89.3481 15.648 89.4601 15.632 89.5561 15.632ZM81.6841 20.576C82.1961 20.576 82.6361 20.368 83.0041 19.952C83.3881 19.536 83.6441 18.936 83.7721 18.152C83.2761 17.816 82.8921 17.376 82.6201 16.832C82.3641 16.288 82.2361 15.712 82.2361 15.104C82.2361 14.848 82.2601 14.592 82.3081 14.336H82.1881C81.5481 14.336 81.0121 14.648 80.5801 15.272C80.1641 15.88 79.9561 16.744 79.9561 17.864C79.9561 18.744 80.1241 19.416 80.4601 19.88C80.8121 20.344 81.2201 20.576 81.6841 20.576ZM97.6482 15.68C97.6482 16.944 97.3522 18.144 96.7602 19.28C96.1842 20.4 95.4082 21.312 94.4322 22.016C93.4722 22.72 92.4402 23.088 91.3362 23.12C91.1282 26.208 90.6562 28.784 89.9202 30.848C89.1842 32.928 88.1042 33.968 86.6802 33.968C85.8162 33.968 85.1762 33.656 84.7602 33.032C84.3442 32.408 84.1362 31.544 84.1362 30.44C84.1362 28.872 84.4962 27.04 85.2162 24.944C85.9362 22.864 87.0482 20.568 88.5522 18.056C88.5522 15.72 88.5362 14.096 88.5042 13.184C88.4882 12.72 88.6722 12.352 89.0562 12.08C89.4402 11.808 89.9202 11.672 90.4962 11.672C90.8322 11.672 91.0722 11.744 91.2162 11.888C91.3762 12.016 91.4642 12.28 91.4802 12.68C91.4802 13.08 91.4882 13.376 91.5042 13.568C92.0162 12.928 92.5202 12.472 93.0162 12.2C93.5122 11.912 94.0402 11.768 94.6002 11.768C95.4962 11.768 96.2242 12.128 96.7842 12.848C97.3602 13.568 97.6482 14.512 97.6482 15.68ZM91.4562 20.816C92.0322 20.688 92.5602 20.376 93.0402 19.88C93.5362 19.368 93.9282 18.744 94.2162 18.008C94.5042 17.256 94.6482 16.472 94.6482 15.656C94.6482 15.176 94.5522 14.816 94.3602 14.576C94.1682 14.32 93.9122 14.192 93.5922 14.192C93.0162 14.192 92.3202 14.8 91.5042 16.016C91.4882 16.72 91.4802 17.752 91.4802 19.112C91.4802 19.848 91.4722 20.416 91.4562 20.816ZM86.8722 31.616C87.3042 31.616 87.6642 30.672 87.9522 28.784C88.2402 26.912 88.4242 24.576 88.5042 21.776C87.8162 23.376 87.2722 24.904 86.8722 26.36C86.4722 27.816 86.2722 29.04 86.2722 30.032C86.2722 30.544 86.3362 30.936 86.4642 31.208C86.5762 31.48 86.7122 31.616 86.8722 31.616Z" fill="#4A148C"/>
</svg>
